<svg xmlns="http://www.w3.org/2000/svg" height="800" width="1200" viewBox="-35.985 -58.5 311.87 351"><path fill="#2e0013" d="M10.1 10.1h220V224h-220z"/><path d="M239.9 0v234H0V0zM10.1 10.1V224h220V10.1zm77.6 152.1V54.6c0-.5-.1-.8-.2-.9-.2-.1-.5-.2-.9-.2H71.1c-.5 0-.8.1-1 .3-.2.2-.3.6-.3 1v107.4c0 .3.1.6.3.8.2.2.6.3 1 .3h15.3c.6 0 1-.1 1.1-.2.2-.1.2-.4.2-.9zm17.6-38.8c0 14 3.6 24.4 10.7 31.3 7.2 6.9 16.2 10.3 27.2 10.3 4.4 0 8.8-.5 13.3-1.4 4.4-.9 8.8-2.4 13-4.6.3-.1.5-.3.7-.5.1-.1.2-.4.2-.7-.3-1.8-.5-3.6-.5-5.4v-98c0-.3-.1-.5-.2-.7-.2-.1-.4-.2-.7-.2h-16.5c-.2 0-.3.1-.6.2-.2.2-.3.4-.3.7v26.7c-.9-.1-1.8-.2-2.5-.2h-2.7c-12.6 0-22.7 4.1-30 12.3-7.4 8.3-11.1 18.3-11.1 30.2zm46.4-26.3v50.7c-.9.5-2 .8-3.3.9-1.3.2-2.6.2-3.8.2-5.8 0-10.7-2.1-14.7-6.2s-6.1-10.8-6.1-20.1c0-8.4 2.1-14.9 6.2-19.5s9.4-7 15.8-7c1.2 0 2.3.1 3.3.2 1 .3 1.9.5 2.6.8z" fill="#ff3f94"/></svg>