<?xml version="1.0" encoding="UTF-8" standalone="no"?>
<!-- Created with Inkscape (http://www.inkscape.org/) -->

<svg
   width="681.67761"
   height="594.15997"
   viewBox="0 0 180.36053 157.20504"
   version="1.1"
   id="svg1"
   xml:space="preserve"
   xmlns="http://www.w3.org/2000/svg"
   xmlns:svg="http://www.w3.org/2000/svg"><defs
     id="defs1" /><g
     id="layer1"
     transform="translate(-17.828291,-3.5076997)"><path
       id="path63"
       style="fill:#2f2f2f;stroke:none;stroke-width:3.66179"
       d="m 119.595,3.5076999 -4.03057,23.1748221 h -1.00669 L 108.5119,6.5296722 h -1.00668 l -1.0086,4.0305538 -6.04584,-4.0305538 4.03057,12.0916988 -6.045837,1.008579 c 2.662377,7.130298 7.961017,2.401491 12.286567,6.240777 5.23452,4.646043 1.84566,11.917589 1.82035,17.940711 -6.81666,-4.92499 -2.13094,-10.247027 -2.01526,-17.128916 -20.8502,2.628165 -8.82094,-16.600521 -23.174733,-19.1442655 -0.829188,5.9801545 2.02817,8.3240165 5.037212,13.0983785 -5.104166,-4.053294 -8.775071,-7.013439 -15.113603,-4.030552 2.952643,8.267483 0.752806,8.184792 -2.015312,16.122255 H 73.24547 L 72.238786,17.614686 c -6.598288,4.428222 -4.466245,8.841282 -2.015264,15.113652 L 56.116554,25.673943 54.10129,34.74365 c 10.278045,4.793554 21.198738,-3.640823 22.168047,14.105048 l -20.152783,-9.067836 1.008556,7.054444 -4.030528,4.028656 c 18.518972,4.97983 43.325643,-2.454651 43.325643,26.198647 H 95.413517 C 93.411663,70.624185 92.109671,62.375726 84.32857,61.948957 l 17.13081,36.273095 C 88.119085,84.173475 88.065997,76.672592 82.315177,60.940354 L 72.238786,57.918381 c -2.166876,8.185992 4.177677,10.964306 6.045815,18.135624 L 55.109846,55.903118 c 0.173202,8.237304 9.001913,11.678968 13.098364,18.135624 L 49.06403,59.933645 v 7.052572 L 45.033454,65.979509 44.024899,52.87925 h -2.015288 l -2.015264,4.030576 -6.04584,-3.021996 -5.03726,12.091679 24.183335,5.037236 c -6.445908,3.683356 -16.394461,-1.070519 -19.146075,6.045864 l 5.039132,8.06108 c 6.818125,-1.223763 8.220992,-9.915736 16.122207,-11.671556 8.649847,-1.922186 19.553652,4.125501 28.194983,12.224124 -1.098203,-2.05108 -2.130796,-4.206993 -3.004916,-6.598384 l 26.196707,27.205307 c 1.02782,-9.78485 -1.0676,-25.800185 4.03055,-34.25975 l 1.00671,46.35141 h 1.00855 c 0.6836,-9.57044 16.31446,-15.06342 24.18149,-18.1375 -5.69689,7.9983 -18.15232,10.23537 -23.45483,19.3675 -5.47823,9.43465 3.64742,25.58049 8.34118,33.02783 -4.26989,-1.58749 -5.99628,-4.73363 -7.05253,-9.06779 h -1.0086 c 0.0298,7.05327 1.81155,12.1197 4.54335,17.14784 h 5.07132 c -4.05631,-1.16743 -6.43545,-3.27813 -4.57551,-7.07334 l 27.22421,6.57189 v -4.07596 c -5.03393,0.17944 -10.33298,-0.60198 -16.14111,-2.88766 -29.29038,-11.52625 -10.02825,-42.13232 10.07639,-49.98834 l 1.00666,7.05442 c 6.66601,-1.96059 9.34054,-1.96918 10.07639,-9.06968 l 6.04586,1.00855 c 0.0192,4.68457 0.29689,8.24343 5.03722,10.0764 l 2.01531,-8.06108 c 7.49299,2.01492 24.61929,7.2809 28.21386,-2.01532 l -21.15947,1.00671 v -1.00671 c 6.68799,-1.60176 26.02226,-4.491933 27.20531,-11.083072 l -14.10692,3.021997 10.07639,-13.098388 h -5.03915 v -5.039132 c -11.76006,3.076476 -3.13784,22.871484 -22.16616,25.190045 l 1.00667,-9.067837 c -3.98164,1.486685 -5.19132,3.993704 -6.04584,8.061127 l -19.14418,-3.021948 11.08497,-11.084995 c 1.4584,8.264029 8.79208,8.193764 7.05252,-1.006708 l 15.11365,9.067836 c 0,-5.760104 -0.88592,-8.316421 -7.05252,-9.067836 v -1.008556 c 4.67862,0 9.13023,0.930063 11.08307,-4.030576 l -26.19672,3.023868 c 4.91846,-4.050487 11.78944,-3.665988 13.09838,-11.083076 -16.82074,0.777419 -21.08937,19.353581 -37.28169,29.218701 l 8.06108,-11.083101 -4.03056,1.008579 c 1.67258,-6.420695 8.26235,-10.416367 4.03056,-17.130786 4.08687,2.878084 5.72344,5.967203 11.0831,4.030527 L 144.785,70.010037 c 10.38693,-0.523661 38.57054,5.784021 42.31898,0 l -13.09836,-3.02382 c 5.66122,-0.594645 9.56292,-2.225745 11.08305,-8.061127 -5.19326,-0.02159 -7.52449,0.559885 -9.27215,1.519478 l -1.8109,4.526338 h -1.00671 l 0.60367,-3.020054 c -1.45418,1.145582 -3.07888,2.475402 -6.64949,4.028657 v -8.061128 c -3.92221,1.5166 -4.81605,3.976121 -5.03917,8.061128 h -10.07448 v -1.008603 l 16.12032,-10.579734 13.10025,-0.503342 c -3.10296,-4.027673 -7.51069,-3.247088 -12.09165,-2.015264 l 12.09165,-11.0831 c -5.3945,-1.97194 -7.30242,-1.435276 -10.07639,-7.054419 -8.63144,6.266108 -2.36903,17.746734 -15.11362,25.190043 2.19945,-5.08224 8.4574,-13.18722 1.0067,-16.12036 l -3.02199,15.113651 -7.0544,-3.023867 3.02387,10.076392 -18.13752,11.083099 10.07639,-18.135624 -8.06113,2.015264 2.01529,-12.091655 c 4.63427,1.732934 7.70554,2.782775 12.09166,0 v -1.006684 l -7.05442,-3.023868 7.05442,-10.076391 h 1.00671 c 2.99373,3.568735 5.9944,4.210639 10.07639,2.015287 l 2.01526,-9.067812 c -7.5704,-2.767398 -13.52295,1.874543 -16.12223,9.067812 h -1.00668 c 0.1245,-7.405405 2.82075,-13.887753 -6.04584,-17.128963 0,12.42038 8.99083,20.524184 -6.04582,30.227327 l 1.00856,-24.181463 h -2.01527 c -5.3004,8.760389 4.38835,23.294509 -7.05442,27.205331 l 5.03916,-9.067836 -16.12226,19.144227 c 0.19408,-11.553601 13.0039,-16.318727 10.07639,-27.205307 -4.65415,2.327052 -5.89535,7.252163 -7.05439,12.091656 h -1.00669 c 0,-12.512619 7.65101,-8.945827 11.08308,-18.137496 l -7.05252,-1.008603 c 3.14647,-4.688457 7.61037,-5.951706 13.09836,-6.043945 v -1.008627 l -4.03058,-1.006685 7.05253,-2.015264 4.03057,-7.05446 c -9.22048,-3.3317377 -9.91374,7.393836 -17.12891,10.076409 2.69848,-6.487259 4.66722,-12.6442119 -2.01527,-17.1289351 z m 54.00758,58.4431521 c 0.69667,-0.548897 1.462,-1.093381 2.21394,-1.506284 l 0.20439,-0.510923 h -2.01527 z M 83.304829,85.676257 C 87.244918,93.034956 92.28592,98.53492 96.705937,104.12031 94.530617,98.357688 89.515883,91.497221 83.304829,85.676257 Z m 13.401108,18.444053 c 0.277819,0.73594 0.541893,1.46812 0.722892,2.16287 l -8.061128,-2.01526 c -0.09955,-4.748506 -1.438323,-8.302703 -6.04584,-10.076395 l -1.006684,7.052525 c -5.203745,-5.954274 2.989539,-14.641953 -6.04584,-18.135625 l 1.006709,10.076391 C 71.579249,88.43226 70.487499,79.696531 61.153814,83.108425 c 1.886274,4.878283 6.398386,5.713541 11.084972,7.052524 v 2.015264 l -7.054444,3.023867 v 2.015312 L 79.29131,102.2526 c -8.830655,-0.14825 -20.772833,-1.82682 -22.866326,-12.006513 -1.07894,-5.246303 4.516262,-8.690941 -1.315138,-13.183478 l -2.015264,5.037212 -6.045864,-2.015264 9.067836,17.130835 -28.212015,-19.146123 -1.008604,3.023868 -9.067788,-2.015264 c 1.74325,6.691774 7.021338,8.340074 13.098364,10.076391 l -5.037236,3.021949 v 2.015312 C 36.818148,98.1865 48.541353,90.820269 58.131818,102.2526 49.531173,103.26447 43.15193,93.814726 34.957063,98.222052 l 13.098364,5.037258 -10.076392,4.03055 c -1.164701,-4.45213 -3.719387,-6.6935 -8.059232,-8.061123 l -5.039132,6.045843 c 1.744714,4.75284 5.179133,6.51943 10.076392,7.05442 v 6.04584 l 6.04584,-1.00856 1.006708,-9.06784 9.069683,-2.01526 -1.008555,8.06113 2.185563,-2.43916 1.844988,-4.61529 -0.656633,3.28691 4.798807,-5.35706 13.995322,0.0549 v 2.01529 c -5.037668,0.27537 -9.376794,2.56766 -8.061104,8.0611 l 12.091655,-7.05252 v 7.05252 c 4.505203,-0.84097 4.893037,-4.02623 6.04584,-8.0611 19.604343,8.15478 31.218063,36.95885 4.028657,47.9731 -4.798951,1.94401 -9.13088,2.82953 -13.194897,3.00871 v 1.43813 l 0.09644,-0.0245 -0.09644,0.19287 v 0.83449 h 10.842776 l 4.367409,-1.02748 c -0.265033,0.38788 -0.532226,0.71063 -0.800425,1.02748 h 5.046712 c 5.144444,-8.30723 9.794281,-15.98362 10.869231,-26.21753 h 1.00671 v 3.02387 h 1.00856 c 3.05738,-16.17014 -2.0862,-24.93513 -8.783973,-33.39875 z m -43.26128,6.45646 -1.188355,1.32838 -0.170324,0.42385 h 1.00858 z M 120.60356,8.5449505 h 2.01526 V 12.57549 h -1.00855 z m -17.12892,2.0152755 2.01527,5.039125 c -2.58983,-1.149534 -3.42183,-2.466135 -2.01527,-5.039125 z m 29.22058,1.00858 3.02199,1.006684 v 1.008604 l -4.03055,1.006708 z m -25.19,1.006684 h 2.01339 v 5.039196 h -2.01339 z m -27.205307,5.039196 c 3.016119,0.06477 4.377844,-0.05517 5.037212,3.021949 z m 7.052524,3.021949 c 14.979193,6.671431 23.957193,22.769961 23.174733,38.288455 l -8.10654,-2.702172 c 0.8729,-2.582345 1.70112,-5.583471 1.05401,-10.396192 l -5.039127,1.00858 C 98.82637,39.083039 100.99533,33.537231 92.389649,29.704471 L 97.428829,42.80473 91.382989,40.789466 94.404961,58.92509 84.32857,45.826726 83.321861,52.87925 H 82.315177 C 79.132525,47.619058 75.093913,39.773905 77.276046,33.735047 L 88.359122,32.728338 C 85.981164,28.05106 85.03239,25.566759 87.352437,20.636635 Z m 15.113603,0 5.03918,1.008627 v 1.006661 z m -31.235834,1.008627 v 6.043945 h -1.006684 z m 68.517584,1.006661 h 2.01526 v 3.02202 z m 17.12891,5.037284 v 1.008603 l -4.03057,1.006661 z m -25.19004,1.008603 v 5.037237 h -2.01526 z m -52.39535,2.015264 h 5.03726 v 2.015264 h -5.03726 z m 27.20531,0 h 2.01528 l -2.01528,3.021973 -1.00671,-1.006709 z m 15.11365,0 v 1.006709 l -4.03058,1.008555 z m -64.48516,2.015264 h 5.037284 v 1.006709 z m 113.85851,5.03726 c 0.58944,2.922297 0.71234,3.803206 -2.01526,5.039132 z m -12.09165,8.061128 v 3.021972 L 156.8767,47.84199 v -1.006684 z m -58.44119,3.021972 c 0.32517,2.873479 -0.1377,3.445335 -3.021951,4.030552 z m -14.106946,1.008556 h 1.008603 l 1.006685,5.03726 z m 90.685656,3.021996 v 1.00858 h -3.02387 z m -46.34954,3.023868 -1.00855,15.113627 -9.06784,-7.052524 c -1.33824,9.953087 10.29527,9.796725 4.03058,20.150912 l -7.05445,-7.052524 c -1.13687,4.509521 0.0192,6.637942 3.02387,10.076392 v 1.00666 l -7.05442,7.054419 c -3.65001,-13.573231 -0.63929,-26.91698 7.05442,-38.290254 z m -29.04271,2.783543 c 0.65773,3.500533 3.11999,5.620582 6.87466,7.292848 l -1.00668,9.067788 h -1.0086 c -6.28326,-8.796542 -6.05517,-12.546635 -4.85938,-16.360636 z m 3.85267,1.246984 h 3.02199 v 4.030576 z m -31.235837,1.006709 3.021973,7.054419 C 74.23932,66.447227 72.490409,64.148914 74.254073,60.940354 Z m 90.683707,1.008603 v 3.021949 h -1.00855 z m -83.631182,2.015264 -1.006685,5.03726 H 79.29131 Z m -48.364799,1.006685 h 6.04584 v 1.008603 z m 66.502294,7.052524 1.006687,5.039179 h -1.006687 z m 81.615917,0.336857 -0.3368,0.334913 c 0.49727,0.165766 1.11607,-0.334913 0.3368,-0.334913 z m -24.51824,2.350201 -0.33686,0.671771 z M 41.002903,75.047297 v 1.006708 h -4.030576 z m 96.729577,0 c -7.85713,12.721085 -5.81377,26.860633 -22.16805,33.251143 0.17608,-10.486076 11.93376,-30.026054 22.16805,-33.251143 z m -96.729577,3.021972 h 2.015287 l -3.023843,4.030552 z m 94.714307,1.008604 h 2.01527 l -2.01527,4.030552 h -1.0086 z m 49.37146,0 h 2.01531 v 5.03726 z M 79.29131,87.139001 v 3.021948 h -1.006709 z m -44.334247,4.030527 v 1.006685 l -5.03726,1.008603 z m 85.646497,1.006685 -5.03913,9.067837 c -2.12353,-3.910415 1.37132,-7.655879 5.03913,-9.067837 z m -46.349487,3.021972 v 1.008604 l -4.030551,1.006684 z m 90.683707,0 h 2.01531 l -3.02386,5.039155 z m -18.13747,6.045865 2.01527,5.03913 c -2.58988,-1.14959 -3.42183,-2.46614 -2.01527,-5.03913 z m -55.095625,3.89619 c 7.357259,0.5121 12.776665,9.55848 12.776665,16.25659 h -1.00671 c -1.95001,-9.47145 -9.289348,-11.39062 -17.130806,-15.11365 1.861469,-0.92457 3.662988,-1.26111 5.360851,-1.14294 z M 31.386361,106.866 c 1.233718,-0.12379 2.304094,0.80345 3.570702,2.43913 l -6.045816,-1.00669 c 0.935556,-0.90456 1.734854,-1.35819 2.475114,-1.43244 z m 6.592674,4.45444 h 2.015312 l -3.02202,4.03053 z m 66.502315,29.22057 c -2.08668,6.53453 -3.48595,15.83259 -9.081051,20.17171 h 5.614391 c 1.56652,-6.4681 2.5794,-13.23001 4.47522,-20.17171 z m -10.076389,13.09837 c -1.794682,4.31137 -5.67962,4.96526 -10.076391,5.03915 v -1.0086 z m 13.100259,0 c -0.67525,2.36327 -1.21429,4.74449 -1.78821,7.07334 h 2.15906 c -0.0691,-2.69409 0.13794,-5.222 0.63583,-7.07334 z m 4.02866,2.01528 0.72282,5.05806 h 1.40032 c -0.55346,-1.55388 -0.92416,-3.24543 -1.11459,-5.05806 z" /></g></svg>
