<?xml version="1.0" encoding="UTF-8" standalone="no"?>
<!DOCTYPE svg PUBLIC "-//W3C//DTD SVG 1.1//EN" "http://www.w3.org/Graphics/SVG/1.1/DTD/svg11.dtd">
<svg width="100%" height="100%" viewBox="0 0 682 595" version="1.1" xmlns="http://www.w3.org/2000/svg" xmlns:xlink="http://www.w3.org/1999/xlink" xml:space="preserve" xmlns:serif="http://www.serif.com/" style="fill-rule:evenodd;clip-rule:evenodd;stroke-linejoin:round;stroke-miterlimit:2;">
    <g id="path63" transform="matrix(0.957988,0,0,0.952303,-53.8646,-5.99012)">
        <g id="layer1">
            <path id="path631" serif:id="path63" d="M452.012,13.257L436.779,100.847L432.974,100.847L410.124,24.679L406.319,24.679L402.507,39.913L379.656,24.679L394.89,70.38L372.04,74.192C382.102,101.141 402.129,83.268 418.477,97.779C438.261,115.339 425.453,142.822 425.357,165.586C399.593,146.972 417.303,126.857 417.74,100.847C338.937,110.78 384.401,38.105 330.151,28.491C327.017,51.093 337.816,59.952 349.189,77.997C329.898,62.677 316.024,51.489 292.067,62.763C303.227,94.01 294.912,93.698 284.45,123.697L276.833,123.697L273.029,66.575C248.09,83.312 256.148,99.991 265.412,123.697L212.094,97.035L204.478,131.314C243.324,149.432 284.599,117.554 288.262,184.625L212.094,150.353L215.906,177.015L200.673,192.241C270.666,211.063 364.423,182.964 364.423,291.26L360.618,291.26C353.052,266.926 348.131,235.75 318.722,234.137L383.468,371.232C333.049,318.136 332.848,289.786 311.113,230.325L273.029,218.904C264.839,249.843 288.818,260.344 295.879,287.448L208.289,211.287C208.944,242.42 242.312,255.428 257.795,279.831L185.439,226.521L185.439,253.176L170.205,249.371L166.394,199.858L158.777,199.858L151.16,215.092L128.31,203.67L109.271,249.371L200.673,268.409C176.31,282.331 138.709,264.363 128.31,291.26L147.355,321.727C173.124,317.102 178.427,284.25 208.289,277.614C240.982,270.349 282.193,293.206 314.853,323.815C310.702,316.063 306.8,307.915 303.496,298.877L402.507,401.7C406.392,364.718 398.472,304.187 417.74,272.214L421.545,447.4L425.357,447.4C427.941,411.229 487.018,390.468 516.752,378.849C495.22,409.079 452.382,420.231 432.341,454.746C411.636,490.404 441.889,548.731 459.629,576.879C443.491,570.879 436.966,558.988 432.974,542.607C431.748,541.444 430.476,541.475 429.162,542.607C429.275,569.265 436.009,588.413 446.334,607.417C450.389,614.493 459.223,619.339 471.168,622.733C469.372,620.673 469.786,620.283 469.43,619.803C468.744,618.879 468.699,619.02 469.051,616.096C453.72,611.683 441.178,595.028 448.208,580.683C467.981,583.858 486.1,601.237 541.049,614.878C539.578,607.437 531.756,599.221 523.973,595.988C506.366,588.672 495.223,587.799 476.228,573.81C385.171,506.747 452.194,419.963 528.18,390.271L531.985,416.933C557.179,409.523 567.288,409.491 570.069,382.654L592.919,386.466C592.992,404.171 594.042,417.622 611.958,424.55L619.575,394.083C647.895,401.698 712.624,421.601 726.21,386.466L646.237,390.271L646.237,386.466C671.514,380.412 744.589,369.489 749.06,344.577L695.743,355.999L733.826,306.493L714.781,306.493L714.781,287.448C670.334,299.075 702.921,373.891 631.003,382.654L634.808,348.382C619.759,354.001 615.187,363.476 611.958,378.849L539.602,367.428L581.498,325.532C587.01,356.766 614.728,356.5 608.153,321.727L665.275,355.999C665.275,334.229 661.927,324.567 638.62,321.727L638.62,317.915C656.303,317.915 673.128,321.43 680.509,302.681L581.498,314.11C600.087,298.801 626.056,300.254 631.003,272.221C567.429,275.16 551.296,345.369 490.096,382.654L520.563,340.765L505.33,344.577C511.651,320.31 536.558,305.208 520.563,279.831C536.01,290.709 542.195,302.384 562.452,295.065L547.219,264.605C586.476,262.625 692.997,286.465 707.164,264.605L657.659,253.176C679.055,250.928 693.802,244.764 699.547,222.709C679.919,222.627 671.108,224.825 664.503,228.452L657.659,245.559L653.854,245.559L656.135,234.145C650.639,238.474 644.499,243.5 631.003,249.371L631.003,218.904C616.179,224.636 612.801,233.932 611.958,249.371L573.881,249.371L573.881,245.559L634.808,205.573L684.321,203.67C672.593,188.448 655.934,191.398 638.62,196.054L684.321,154.165C663.932,146.712 656.721,148.74 646.237,127.502C613.614,151.185 637.283,194.577 589.115,222.709C597.428,203.5 621.08,172.867 592.919,161.781L581.498,218.904L554.836,207.475L566.264,245.559L497.713,287.448L535.797,218.904L505.33,226.521L512.947,180.82C530.462,187.37 542.07,191.337 558.647,180.82L558.647,177.015L531.985,165.586L558.647,127.502L562.452,127.502C573.767,140.99 585.108,143.417 600.536,135.119L608.153,100.847C579.54,90.388 557.043,107.932 547.219,135.119L543.414,135.119C543.884,107.13 554.075,82.63 520.563,70.38C520.563,117.323 554.545,147.952 497.713,184.625L501.525,93.23L493.908,93.23C473.875,126.34 510.494,181.272 467.246,196.054L486.292,161.781L425.357,234.137C426.091,190.47 474.506,172.46 463.441,131.314C445.851,140.11 441.159,158.724 436.779,177.015L432.974,177.015C432.974,129.723 461.891,143.204 474.863,108.464L448.208,104.652C460.1,86.932 476.971,82.157 497.713,81.809L497.713,77.997L482.479,74.192L509.135,66.575L524.368,39.913C489.519,27.32 486.899,67.858 459.629,77.997C469.828,53.478 477.269,30.208 452.012,13.257ZM656.135,234.145C658.768,232.07 661.661,230.012 664.503,228.452L665.275,226.521L657.659,226.521L656.135,234.145ZM314.853,323.815C329.745,351.628 348.797,372.415 365.503,393.525C357.281,371.745 338.328,345.816 314.853,323.815ZM365.503,393.525C366.553,396.307 367.551,399.074 368.235,401.7L337.768,394.083C337.391,376.136 332.332,362.703 314.917,355.999L311.113,382.654C291.445,360.15 322.412,327.315 288.262,314.11L292.067,352.194C270.536,334.232 266.41,301.215 231.133,314.11C238.262,332.548 255.316,335.705 273.029,340.765L273.029,348.382L246.366,359.811L246.366,367.428L299.684,386.466C266.308,385.906 221.172,379.561 213.26,341.087C209.182,321.259 230.329,308.24 208.289,291.26L200.673,310.298L177.822,302.681L212.094,367.428L105.466,295.065L101.654,306.493L67.382,298.877C73.971,324.168 93.92,330.398 116.888,336.961L97.85,348.382L97.85,355.999C139.155,371.098 183.464,343.257 219.711,386.466C187.205,390.29 163.094,354.575 132.121,371.232L181.627,390.271L143.543,405.504C139.141,388.678 129.486,380.206 113.083,375.037L94.038,397.888C100.632,415.851 113.612,422.528 132.121,424.55L132.121,447.4L154.972,443.588L158.777,409.316L193.056,401.7L189.244,432.167L197.504,422.948L204.478,405.504L201.996,417.927L220.133,397.68L273.029,397.888L273.029,405.505C253.989,406.545 237.589,415.209 242.561,435.972L288.262,409.317L288.262,435.972C305.29,432.793 306.755,420.754 311.113,405.505C385.208,436.326 429.102,545.191 326.339,586.82C308.201,594.167 291.829,597.514 276.469,598.191L276.469,603.627L276.833,603.534L276.469,604.263L276.469,607.417L317.449,607.417L333.956,603.534C332.954,605 331.944,606.22 330.931,607.417C329.989,612.149 330.989,616.284 333.548,619.939C340.145,617.571 345.562,613.286 350.005,607.417C369.448,576.02 387.022,547.007 391.085,508.328L394.89,508.328L394.89,519.756L398.702,519.756C410.257,458.641 390.817,425.513 365.503,393.525L365.503,393.525ZM201.996,417.927L197.504,422.948L196.861,424.55L200.673,424.55L201.996,417.927ZM455.824,32.296L463.441,32.296L463.441,47.529L459.629,47.529L455.824,32.296ZM391.085,39.913L398.702,58.958C388.914,54.613 385.769,49.637 391.085,39.913ZM501.525,43.725L512.947,47.529L512.947,51.341L497.713,55.146L501.525,43.725ZM406.319,47.529L413.929,47.529L413.929,66.575L406.319,66.575L406.319,47.529ZM303.496,66.575C314.895,66.82 320.042,66.367 322.534,77.997L303.496,66.575ZM330.151,77.997C386.765,103.211 420.698,164.056 417.74,222.709L387.102,212.496C390.401,202.736 393.531,191.393 391.085,173.203L372.04,177.015C373.517,147.715 381.715,126.755 349.189,112.269L368.235,161.781L345.385,154.165L356.806,222.709L318.722,173.203L314.917,199.858L311.113,199.858C299.084,179.977 283.82,150.326 292.067,127.502L333.956,123.697C324.968,106.02 321.382,96.63 330.151,77.997ZM387.273,77.997L406.319,81.809L406.319,85.613L387.273,77.997ZM269.217,81.809L269.217,104.652L265.412,104.652L269.217,81.809ZM528.18,85.613L535.797,85.613L535.797,97.035L528.18,85.613ZM592.919,104.652L592.919,108.464L577.686,112.269L592.919,104.652ZM497.713,108.464L497.713,127.502L490.096,127.502L497.713,108.464ZM299.684,116.081L318.722,116.081L318.722,123.697L299.684,123.697L299.684,116.081ZM402.507,116.081L410.124,116.081L402.507,127.502L398.702,123.697L402.507,116.081ZM459.629,116.081L459.629,119.886L444.396,123.697L459.629,116.081ZM215.906,123.697L234.945,123.697L234.945,127.502L215.906,123.697ZM646.237,142.736C648.465,153.781 648.929,157.11 638.62,161.781L646.237,142.736ZM600.536,173.203L600.536,184.625L592.919,180.82L592.919,177.015L600.536,173.203ZM379.656,184.625C380.885,195.485 379.136,197.646 368.235,199.858L379.656,184.625ZM326.339,188.437L330.151,188.437L333.956,207.475L326.339,188.437ZM669.087,199.858L669.087,203.67L657.659,203.67L669.087,199.858ZM493.908,211.287L490.096,268.409L455.824,241.754C450.766,279.372 494.736,278.781 471.058,317.915L444.396,291.26C440.099,308.304 444.468,316.348 455.824,329.344L455.824,333.149L429.162,359.811C415.367,308.511 426.746,258.078 455.824,215.092L493.908,211.287ZM384.141,221.808C386.627,235.038 395.933,243.051 410.124,249.371L406.319,283.643L402.507,283.643C378.759,250.396 379.621,236.223 384.141,221.808ZM398.702,226.521L410.124,226.521L410.124,241.754L398.702,226.521ZM280.645,230.325L292.067,256.988C280.59,251.139 273.98,242.452 280.645,230.325ZM623.387,234.137L623.387,245.559L619.575,245.559L623.387,234.137ZM307.301,241.754L303.496,260.793L299.684,260.793L307.301,241.754ZM124.505,245.559L147.355,245.559L147.355,249.371L124.505,245.559ZM375.852,272.214L379.656,291.26L375.852,291.26L375.852,272.214ZM684.321,273.487L683.048,274.753C684.927,275.38 687.266,273.487 684.321,273.487ZM591.654,282.37L590.38,284.909L591.654,282.37ZM154.972,283.643L154.972,287.448L139.738,287.448L154.972,283.643ZM520.563,283.643C490.867,331.723 498.59,385.163 436.779,409.316C437.444,369.684 481.883,295.832 520.563,283.643ZM154.972,295.065L162.589,295.065L151.16,310.298L154.972,295.065ZM512.947,298.877L520.563,298.877L512.947,314.11L509.135,314.11L512.947,298.877ZM699.547,298.877L707.164,298.877L707.164,317.915L699.547,298.877ZM299.684,329.344L299.684,340.765L295.879,340.765L299.684,329.344ZM132.121,344.577L132.121,348.382L113.083,352.194L132.121,344.577ZM455.824,348.382L436.779,382.654C428.753,367.875 441.962,353.719 455.824,348.382ZM280.645,359.804L280.645,363.616L265.412,367.42L280.645,359.804ZM623.387,359.804L631.003,359.804L619.575,378.849L623.387,359.804ZM554.836,382.654L562.452,401.7C552.664,397.355 549.519,392.379 554.836,382.654ZM346.6,397.38C374.407,399.315 394.89,433.506 394.89,458.822L391.085,458.822C383.715,423.024 355.976,415.771 326.339,401.7C333.374,398.205 340.183,396.933 346.6,397.38ZM118.626,403.902C123.289,403.435 127.334,406.939 132.121,413.121L109.271,409.316C112.807,405.898 115.828,404.183 118.626,403.902ZM143.543,420.738L151.16,420.738L139.738,435.972L143.543,420.738ZM394.89,531.178C387.003,555.875 381.715,591.018 360.568,607.417C362.884,612.228 363.124,617.633 360.915,623.736C366.266,622.773 373.079,616.259 379.076,606.678C384.996,582.231 391.537,557.414 398.702,531.178L394.89,531.178ZM356.806,580.683C350.023,596.978 335.34,599.45 318.722,599.729L318.722,595.917L356.806,580.683ZM403.411,580.764C400.858,589.696 399.144,598.373 396.975,607.175C397.496,613.948 402.31,620.498 405.864,626.444C404.211,618.762 403.604,611.685 406.118,600.592C408.39,590.565 408.242,587.681 410.124,580.683C408.648,577.052 406.569,576.316 403.411,580.764ZM419.178,588.3L421.753,607.102C423.863,615.983 432.459,622.758 437.548,625.682C431.391,618.222 428.858,614.029 426.985,602.441C426.056,596.697 426.077,595.151 425.357,588.3C422.794,584.884 420.725,584.826 419.178,588.3Z" style="fill:rgb(47,47,47);fill-rule:nonzero;stroke:rgb(47,47,47);stroke-width:1.05px;"/>
        </g>
    </g>
</svg>
